<?xml version="1.0" standalone="no"?>
<!DOCTYPE svg PUBLIC "-//W3C//DTD SVG 20010904//EN"
 "http://www.w3.org/TR/2001/REC-SVG-20010904/DTD/svg10.dtd">
<svg version="1.0" xmlns="http://www.w3.org/2000/svg"
 width="700.000000pt" height="700.000000pt" viewBox="0 0 700.000000 700.000000"
 preserveAspectRatio="xMidYMid meet">
<metadata>
Created by potrace 1.11, written by Peter Selinger 2001-2013
</metadata>
<g transform="translate(0.000000,700.000000) scale(0.100000,-0.100000)"
fill="#000000" stroke="none">
<path d="M3415 6784 c-6 -1 -22 -5 -36 -8 -27 -6 -67 -62 -111 -156 -25 -53
-326 -958 -468 -1408 -100 -316 -148 -426 -232 -534 -101 -129 -212 -193 -405
-232 -121 -25 -213 -27 -1053 -27 -860 -1 -839 1 -1005 -62 -109 -41 -108 -39
-86 -97 51 -135 148 -259 275 -354 66 -50 224 -156 231 -156 1 0 79 -51 171
-114 93 -63 252 -171 354 -240 102 -68 245 -165 319 -215 73 -50 137 -91 141
-91 5 0 10 -3 12 -7 2 -5 35 -30 73 -56 183 -125 273 -244 320 -425 15 -61 21
-208 10 -264 -15 -79 -83 -286 -150 -463 -42 -110 -124 -333 -182 -495 -57
-162 -145 -410 -195 -550 -50 -140 -93 -271 -96 -290 -5 -35 -7 -182 -4 -271
l2 -46 53 17 c231 78 292 116 663 417 187 152 200 163 308 252 56 46 118 97
139 115 22 17 44 36 50 41 7 6 44 35 82 65 39 30 72 57 75 60 16 18 226 175
288 215 255 164 465 197 681 107 69 -29 218 -114 249 -142 9 -8 42 -33 72 -56
42 -31 327 -256 440 -347 160 -129 840 -623 870 -632 14 -4 30 -11 35 -15 27
-19 266 -90 304 -90 14 0 18 6 16 28 -2 15 -6 69 -10 119 -3 51 -8 105 -11
120 -26 156 -43 227 -81 343 -24 74 -46 142 -48 150 -2 8 -30 94 -63 190 -32
96 -78 231 -101 300 -23 69 -46 134 -51 145 -14 33 -148 456 -164 521 -74 292
-8 628 172 884 62 87 182 205 267 261 39 26 158 94 265 151 320 173 608 354
857 540 54 40 102 76 108 80 54 37 108 100 153 180 29 51 60 103 69 115 12 19
13 23 2 27 -23 7 -161 36 -199 41 -19 3 -46 8 -60 10 -146 24 -369 27 -820 10
-269 -10 -660 -18 -860 -18 -234 0 -279 7 -412 63 -163 69 -309 203 -384 352
-42 82 -201 531 -459 1293 -89 262 -160 459 -184 511 -25 53 -81 123 -100 124
-3 1 -24 4 -46 9 -22 4 -45 6 -50 5z"/>
</g>
</svg>
